<svg width="30" height="36" viewBox="0 0 30 36" fill="none" xmlns="http://www.w3.org/2000/svg">
<path d="M14.5159 36C12.1523 36 10.6882 34.4476 10.6882 31.9301C10.6882 29.2448 14.0139 26.2028 14.1603 26.0769L14.5159 25.7622L14.8714 26.0769C15.0178 26.2028 18.3435 29.2448 18.3435 31.9301C18.3435 34.4266 16.8794 36 14.5159 36ZM14.5159 27.1888C13.7001 28.007 11.734 30.1678 11.734 31.9301C11.734 34.5524 13.47 34.951 14.5159 34.951C15.5617 34.951 17.2977 34.5524 17.2977 31.9301C17.2977 30.2937 15.5408 28.1958 14.5159 27.1888ZM4.49699 9.60839L7.94816 11.5385V15.4406L4.49699 17.3916L1.04581 15.4406V11.5385L4.49699 9.60839ZM4.49699 8.39161L3.97408 8.68531L0.543822 10.6364L0 10.9301V11.5385V15.4406V16.049L0.543822 16.3427L3.97408 18.2937L4.49699 18.5874L5.01989 18.2937L8.45015 16.3427L8.99398 16.049V15.4406V11.5385V10.9301L8.45015 10.6364L5.01989 8.68531L4.49699 8.39161ZM14.5368 9.60839L17.988 11.5385V15.4406L14.5368 17.3916L11.0856 15.4406V11.5385L14.5368 9.60839ZM14.5368 8.39161L14.0139 8.68531L10.5836 10.6364L10.0398 10.9301V11.5385V15.4406V16.049L10.5836 16.3427L14.0139 18.2937L14.5368 18.5874L15.0597 18.2937L18.4899 16.3427L19.0338 16.049V15.4406V11.5385V10.9301L18.4899 10.6364L15.0597 8.68531L14.5368 8.39161ZM24.5766 9.60839L28.0277 11.5385V15.4406L24.5766 17.3916L21.1254 15.4406V11.5385L24.5766 9.60839ZM24.5766 8.39161L24.0537 8.68531L20.6234 10.6364L20.0796 10.9301V11.5385V15.4406V16.049L20.6234 16.3427L24.0327 18.2937L24.5556 18.5874L25.0786 18.2937L28.5088 16.3427L29.0526 16.049V15.4406V11.5385V10.9301L28.5088 10.6364L25.0995 8.68531L24.5766 8.39161ZM9.51688 18L12.9681 19.9301V23.8322L9.51688 25.7832L6.0657 23.8322V19.9301L9.51688 18ZM9.51688 16.7832L8.99398 17.0769L5.56371 19.028L5.01989 19.3217V19.9301V23.8322V24.4406L5.56371 24.7343L8.97306 26.6853L9.49597 26.979L10.0189 26.6853L13.4491 24.7343L13.993 24.4406V23.8322V19.9301V19.3217L13.4491 19.028L10.0398 17.0769L9.51688 16.7832ZM19.5567 18L23.0078 19.9301V23.8322L19.5567 25.7832L16.1055 23.8322V19.9301L19.5567 18ZM19.5567 16.7832L19.0338 17.0769L15.6035 19.028L15.0597 19.3217V19.9301V23.8322V24.4406L15.6035 24.7343L19.0128 26.6853L19.5358 26.979L20.0587 26.6853L23.4889 24.7343L24.0327 24.4406V23.8322V19.9301V19.3217L23.4889 19.028L20.0796 17.0769L19.5567 16.7832ZM9.51688 1.21678L12.9681 3.14685V7.04895L9.51688 9L6.0657 7.04895V3.14685L9.51688 1.21678ZM9.51688 0L8.99398 0.293706L5.56371 2.24476L5.01989 2.53846V3.14685V7.04895V7.65734L5.56371 7.95105L8.99398 9.9021L9.51688 10.1958L10.0398 9.9021L13.47 7.95105L14.0139 7.65734V7.04895V3.14685V2.53846L13.47 2.24476L10.0398 0.293706L9.51688 0ZM19.5567 1.21678L23.0078 3.14685V7.04895L19.5567 9L16.1055 7.04895V3.14685L19.5567 1.21678ZM19.5567 0L19.0338 0.293706L15.6035 2.24476L15.0597 2.53846V3.14685V7.04895V7.65734L15.6035 7.95105L19.0338 9.9021L19.5567 10.1958L20.0796 9.9021L23.5098 7.95105L24.0537 7.65734V7.04895V3.14685V2.53846L23.5098 2.24476L20.0796 0.293706L19.5567 0Z" fill="#ED5E0D" fill-opacity="0.5"/>
</svg>
