<svg width="29" height="30" viewBox="0 0 29 30" fill="none" xmlns="http://www.w3.org/2000/svg">
<g opacity="0.5">
<path d="M28.265 15.6923C28.265 7.75881 22.0967 2.95905 14.5004 2.95905C6.9041 2.93921 0.735809 7.77864 0.735809 15.7121C0.735809 20.5317 3.01669 25.629 6.52726 28.6041H22.4934C25.9841 25.629 28.265 20.5119 28.265 15.6923Z" fill="#F7F3F1"/>
<path d="M22.6712 29.001H6.34805L6.20921 28.882C2.57964 25.8078 0.239258 20.6114 0.239258 15.6529C0.239258 11.706 1.68712 8.35411 4.44401 5.9344C7.02239 3.67335 10.5925 2.42383 14.4997 2.42383C22.8894 2.42383 28.7602 7.85827 28.7602 15.6331C28.7602 20.5915 26.4198 25.8078 22.7902 28.882L22.6712 29.001ZM6.70505 28.0093H22.2944C25.6264 25.0938 27.7685 20.2742 27.7685 15.6331C27.7685 8.43345 22.3142 3.41551 14.4997 3.41551C6.68522 3.41551 1.23094 8.45328 1.23094 15.6529C1.23094 20.2742 3.37299 25.0938 6.70505 28.0093Z" fill="#ED5E0D"/>
<path d="M26.4 5.31836C26.4 6.25055 25.6464 6.98439 24.734 6.98439H3.27391C2.34173 6.98439 1.60788 6.23071 1.60788 5.31836V2.50197C1.60788 1.56979 2.36156 0.835938 3.27391 0.835938H24.7142C25.6464 0.835938 26.3802 1.58962 26.3802 2.50197V5.31836H26.4Z" fill="#F7F3F1"/>
<path d="M24.8133 7.38233H3.37309C2.18306 7.38233 1.21121 6.41048 1.21121 5.22045V2.40406C1.21121 1.21404 2.18306 0.242188 3.37309 0.242188H24.8133C26.0034 0.242188 26.9752 1.21404 26.9752 2.40406V5.20062C26.9951 6.41048 26.0232 7.38233 24.8133 7.38233ZM3.37309 1.23387C2.71858 1.23387 2.2029 1.76938 2.2029 2.40406V5.20062C2.2029 5.85513 2.73841 6.37081 3.37309 6.37081H24.8133C25.4679 6.37081 25.9835 5.8353 25.9835 5.20062V2.40406C25.9835 1.74955 25.448 1.23387 24.8133 1.23387H3.37309Z" fill="#ED5E0D"/>
<path d="M11.5243 18.8451L14.4002 17.2188L17.2761 18.8451V22.0978L14.4002 23.7242L11.5243 22.0978V18.8451Z" fill="#F7F3F1"/>
<path d="M14.4998 24.0626L11.3264 22.2776V18.6678L14.4998 16.8828L17.6732 18.6678V22.2776L14.4998 24.0626ZM11.9215 21.9206L14.4998 23.3883L17.0782 21.9206V19.0249L14.4998 17.5572L11.9215 19.0249V21.9206Z" fill="#ED5E0D"/>
<path d="M8.74866 13.8881L11.6245 12.2617L14.5004 13.8881V17.1408L11.6245 18.7672L8.74866 17.1408V13.8881Z" fill="#F7F3F1"/>
<path d="M11.7233 19.1056L8.54987 17.3206V13.7108L11.7233 11.9258L14.8967 13.7108V17.3206L11.7233 19.1056ZM9.14488 16.9635L11.7233 18.4312L14.3016 16.9635V14.0678L11.7233 12.6001L9.14488 14.0678V16.9635Z" fill="#ED5E0D"/>
<path d="M14.4997 13.8881L17.3756 12.2617L20.2515 13.8881V17.1408L17.3756 18.7672L14.4997 17.1408V13.8881Z" fill="#F7F3F1"/>
<path d="M17.4743 19.1056L14.3009 17.3206V13.7108L17.4743 11.9258L20.6477 13.7108V17.3206L17.4743 19.1056ZM14.8959 16.9635L17.4743 18.4312L20.0527 16.9635V14.0678L17.4743 12.6001L14.8959 14.0678V16.9635Z" fill="#ED5E0D"/>
</g>
</svg>
