<svg width="32" height="36" viewBox="0 0 32 36" fill="none" xmlns="http://www.w3.org/2000/svg">
<g opacity="0.5">
<path d="M15.5644 15.0391C18.527 15.0391 20.9287 12.6173 20.9287 9.6299C20.9287 6.64248 18.527 4.2207 15.5644 4.2207C12.6018 4.2207 10.2002 6.64248 10.2002 9.6299C10.2002 12.6173 12.6018 15.0391 15.5644 15.0391Z" fill="#F7F3F1"/>
<path d="M15.5646 15.5518C12.3339 15.5518 9.69238 12.8882 9.69238 9.63041C9.69238 6.3726 12.3339 3.70898 15.5646 3.70898C18.7953 3.70898 21.4368 6.3726 21.4368 9.63041C21.4368 12.8882 18.8156 15.5518 15.5646 15.5518ZM15.5646 4.73345C12.8825 4.73345 10.7083 6.92582 10.7083 9.63041C10.7083 12.335 12.8825 14.5274 15.5646 14.5274C18.2467 14.5274 20.4209 12.335 20.4209 9.63041C20.4209 6.92582 18.2467 4.73345 15.5646 4.73345Z" fill="#ED5E0D"/>
<path d="M23.6513 21.4735C23.6513 24.6903 22.229 29.1775 19.872 31.8206C18.6731 33.1729 15.6049 35.3653 15.6049 35.3653C15.6049 35.3653 12.3742 33.0705 11.1348 31.5748C8.89965 28.8907 7.55859 24.5879 7.55859 21.453C7.55859 16.597 10.769 12.6426 15.6049 12.6426C20.4409 12.6631 23.6513 16.597 23.6513 21.4735Z" fill="#F7F3F1"/>
<path d="M15.6256 36L15.3412 35.7951C15.1989 35.6927 12.0495 33.4389 10.7694 31.9226C8.35139 29.0336 7.07129 24.4645 7.07129 21.4731C7.07129 18.9529 7.90437 16.6171 9.40798 14.896C10.9726 13.1134 13.1873 12.1504 15.6256 12.1504C18.0639 12.1504 20.2584 13.1339 21.8433 14.896C23.3469 16.5966 24.18 18.9324 24.18 21.4731C24.18 24.6079 22.8389 29.2795 20.2787 32.1685C19.0595 33.5413 16.0523 35.7132 15.9304 35.7951L15.6256 36ZM15.6256 13.1749C11.257 13.1749 8.08724 16.6581 8.08724 21.4731C8.08724 24.2801 9.26575 28.5624 11.5415 31.267C12.5168 32.4144 14.8129 34.156 15.6256 34.7502C16.4181 34.1765 18.5922 32.5373 19.5269 31.4924C21.9245 28.8083 23.164 24.4235 23.164 21.4731C23.1437 16.6581 19.9739 13.1749 15.6256 13.1749Z" fill="#ED5E0D"/>
<path d="M22.4527 16.6992H8.63574V17.7237H22.4527V16.6992Z" fill="#ED5E0D"/>
<path d="M23.8753 18.748H7.82324V19.7725H23.8753V18.748Z" fill="#ED5E0D"/>
<path d="M22.4528 21.6172H8.43262V22.6417H22.4528V21.6172Z" fill="#ED5E0D"/>
<path d="M23.469 24.2793H7.62012V25.3038H23.469V24.2793Z" fill="#ED5E0D"/>
<path d="M21.4364 29.1973H9.85449V30.2217H21.4364V29.1973Z" fill="#ED5E0D"/>
<path d="M22.656 26.5332H8.43262V27.5577H22.656V26.5332Z" fill="#ED5E0D"/>
<path d="M19.8114 31.2461H11.2773V32.2706H19.8114V31.2461Z" fill="#ED5E0D"/>
<path d="M30.7424 21.5763C30.7424 23.9121 28.1822 25.7971 25.0327 25.7971C21.8833 25.7971 15.625 23.9121 15.625 21.5763C15.625 19.2405 21.8833 17.3555 25.0327 17.3555C28.1822 17.3555 30.7424 19.2405 30.7424 21.5763Z" fill="#F7F3F1"/>
<path d="M25.0329 26.3079C22.0866 26.3079 15.1172 24.4638 15.1172 21.5748C15.1172 18.6858 22.0866 16.8418 25.0329 16.8418C28.4668 16.8418 31.2505 18.9727 31.2505 21.5748C31.2505 24.177 28.4668 26.3079 25.0329 26.3079ZM25.0329 17.8663C21.9241 17.8663 16.1331 19.7718 16.1331 21.5748C16.1331 23.3779 21.9241 25.2834 25.0329 25.2834C27.8979 25.2834 30.2346 23.6238 30.2346 21.5748C30.2346 19.5259 27.8979 17.8663 25.0329 17.8663Z" fill="#ED5E0D"/>
<path d="M0.507812 21.5763C0.507812 19.2405 3.06802 17.3555 6.21747 17.3555C9.36693 17.3555 15.6252 19.2405 15.6252 21.5763C15.6252 23.9121 9.36693 25.7971 6.21747 25.7971C3.06802 25.7971 0.507812 23.9121 0.507812 21.5763Z" fill="#F7F3F1"/>
<path d="M6.21764 26.3079C2.78371 26.3079 0 24.177 0 21.5748C0 18.9727 2.78371 16.8418 6.21764 16.8418C9.1639 16.8418 16.1333 18.6858 16.1333 21.5748C16.1333 24.4638 9.1639 26.3079 6.21764 26.3079ZM6.21764 17.8663C3.35265 17.8663 1.01595 19.5259 1.01595 21.5748C1.01595 23.6238 3.35265 25.2834 6.21764 25.2834C9.32646 25.2834 15.1174 23.3779 15.1174 21.5748C15.1174 19.7718 9.32646 17.8663 6.21764 17.8663Z" fill="#ED5E0D"/>
<path d="M12.5978 5.53213C12.3134 5.53213 12.0898 5.30675 12.0898 5.0199V0.512235C12.0898 0.225383 12.3134 0 12.5978 0C12.8823 0 13.1058 0.225383 13.1058 0.512235V5.0199C13.1058 5.30675 12.8823 5.53213 12.5978 5.53213Z" fill="#ED5E0D"/>
<path d="M18.6935 5.53213C18.4091 5.53213 18.1855 5.30675 18.1855 5.0199V0.512235C18.1855 0.225383 18.4091 0 18.6935 0C18.978 0 19.2015 0.225383 19.2015 0.512235V5.0199C19.2015 5.30675 18.978 5.53213 18.6935 5.53213Z" fill="#ED5E0D"/>
<path d="M3.06851 25.5488C2.58085 23.6228 4.28765 21.5123 6.88849 20.8567C9.48934 20.1805 15.0568 20.4264 15.5444 22.3524C16.0321 24.2784 11.2571 27.1674 8.65625 27.8436C6.05541 28.4992 3.55616 27.4748 3.06851 25.5488Z" fill="#F7F3F1"/>
<path d="M7.07138 28.5421C4.81596 28.5421 3.00756 27.3947 2.58086 25.6736C2.03225 23.4812 3.9016 21.084 6.78691 20.3464C7.66063 20.121 8.87978 19.998 10.1192 19.998C11.379 19.998 15.5444 20.162 16.0727 22.2109C16.4182 23.5837 14.9145 25.0179 13.5938 25.9605C12.1308 27.0054 10.2208 27.9479 8.81882 28.3167C8.20925 28.4602 7.64031 28.5421 7.07138 28.5421ZM10.0989 21.0225C8.94074 21.0225 7.82318 21.1455 7.03074 21.3503C4.69405 21.9445 3.1498 23.7681 3.5765 25.4277C3.9016 26.6776 5.30362 27.5177 7.0917 27.5177C7.57936 27.5177 8.06701 27.4562 8.55467 27.3332C9.83477 27.0054 11.6229 26.1244 12.9842 25.1409C14.4269 24.0959 15.2193 23.0715 15.0771 22.4773C14.8536 21.6372 12.7607 21.0225 10.0989 21.0225Z" fill="#ED5E0D"/>
<path d="M28.162 25.5488C28.6496 23.6228 26.9428 21.5123 24.342 20.8567C21.7411 20.1805 16.1737 20.4264 15.686 22.3524C15.1984 24.2784 19.9734 27.1674 22.5742 27.8436C25.175 28.4992 27.6743 27.4748 28.162 25.5488Z" fill="#F7F3F1"/>
<path d="M24.1592 28.5831C23.5903 28.5831 23.0011 28.4807 22.4321 28.3372C21.0301 27.9684 19.1201 27.0259 17.6571 25.9809C16.3364 25.0384 14.8125 23.6042 15.1782 22.2109C15.7065 20.162 19.8719 19.998 21.1317 19.998C22.3712 19.998 23.57 20.121 24.464 20.3464C27.329 21.084 29.2187 23.4812 28.6701 25.6941C28.2231 27.4152 26.4147 28.5831 24.1592 28.5831ZM21.1317 21.0225C18.4699 21.0225 16.377 21.6372 16.1738 22.4568C16.0113 23.0715 16.8241 24.0959 18.2667 25.1204C19.6281 26.1039 21.4162 26.9849 22.6963 27.3128C23.1839 27.4357 23.6716 27.4972 24.1592 27.4972C25.9473 27.4972 27.3493 26.6571 27.6744 25.4072C28.1011 23.7476 26.5366 21.924 24.2202 21.3299C23.4074 21.1455 22.2899 21.0225 21.1317 21.0225Z" fill="#ED5E0D"/>
</g>
</svg>
