<svg width="623" height="167" viewBox="0 0 623 167" fill="none" xmlns="http://www.w3.org/2000/svg">
<path d="M0 83.5C0 37.3842 37.3842 0 83.5 0H533C582.706 0 623 40.2944 623 90V167H83.5C37.3842 167 0 129.616 0 83.5Z" fill="black" fill-opacity="0.536"/>
<path d="M56.476 106.86H66.556V120H64.576V108.48H58.456V120H56.476V106.86ZM75.4814 115.05V120H73.5014V106.95C74.7494 106.77 76.0694 106.68 77.4614 106.68C79.1174 106.68 80.3714 107.034 81.2234 107.742C82.0754 108.438 82.5014 109.434 82.5014 110.73C82.5014 113.67 80.8214 115.14 77.4614 115.14C76.8254 115.14 76.1654 115.11 75.4814 115.05ZM75.4814 113.448C76.0814 113.544 76.6814 113.592 77.2814 113.592C78.3374 113.592 79.1474 113.364 79.7114 112.908C80.2754 112.44 80.5574 111.774 80.5574 110.91C80.5574 110.046 80.2814 109.392 79.7294 108.948C79.1774 108.492 78.3614 108.264 77.2814 108.264C76.5974 108.264 75.9974 108.306 75.4814 108.39V113.448ZM89.512 108.516C90.688 107.292 92.26 106.68 94.228 106.68C96.196 106.68 97.768 107.292 98.944 108.516C100.12 109.74 100.708 111.378 100.708 113.43C100.708 115.482 100.12 117.12 98.944 118.344C97.768 119.568 96.196 120.18 94.228 120.18C92.26 120.18 90.688 119.568 89.512 118.344C88.336 117.12 87.748 115.482 87.748 113.43C87.748 111.378 88.336 109.74 89.512 108.516ZM90.988 117.192C91.804 118.104 92.884 118.56 94.228 118.56C95.572 118.56 96.652 118.104 97.468 117.192C98.284 116.268 98.692 115.014 98.692 113.43C98.692 111.846 98.284 110.598 97.468 109.686C96.652 108.762 95.572 108.3 94.228 108.3C92.884 108.3 91.804 108.762 90.988 109.686C90.172 110.598 89.764 111.846 89.764 113.43C89.764 115.014 90.172 116.268 90.988 117.192ZM116.929 120H114.985V110.19H114.949L108.793 120H106.849V106.86H108.793V116.67H108.829L114.985 106.86H116.929V120ZM127.114 118.56C128.098 118.56 128.854 118.35 129.382 117.93C129.91 117.51 130.174 116.91 130.174 116.13C130.174 115.374 129.856 114.81 129.22 114.438C128.584 114.066 127.522 113.88 126.034 113.88H125.134V112.26H126.034C128.638 112.26 129.94 111.54 129.94 110.1C129.94 108.9 129.058 108.3 127.294 108.3C126.298 108.3 125.158 108.636 123.874 109.308L123.334 107.76C124.726 107.04 126.136 106.68 127.564 106.68C128.92 106.68 129.976 106.956 130.732 107.508C131.5 108.06 131.884 108.804 131.884 109.74C131.884 110.592 131.656 111.282 131.2 111.81C130.744 112.326 130.012 112.71 129.004 112.962V112.998C131.104 113.298 132.154 114.372 132.154 116.22C132.154 117.468 131.716 118.44 130.84 119.136C129.976 119.832 128.764 120.18 127.204 120.18C125.728 120.18 124.318 119.82 122.974 119.1L123.514 117.516C124.774 118.212 125.974 118.56 127.114 118.56ZM140.278 112.224H140.998C142.318 112.224 143.266 112.056 143.842 111.72C144.43 111.384 144.724 110.874 144.724 110.19C144.724 109.53 144.49 109.044 144.022 108.732C143.554 108.42 142.786 108.264 141.718 108.264C141.178 108.264 140.698 108.306 140.278 108.39V112.224ZM140.278 113.772V118.47C140.746 118.554 141.286 118.596 141.898 118.596C143.026 118.596 143.854 118.386 144.382 117.966C144.91 117.546 145.174 116.904 145.174 116.04C145.174 115.248 144.856 114.672 144.22 114.312C143.596 113.952 142.522 113.772 140.998 113.772H140.278ZM147.118 116.22C147.118 118.86 145.378 120.18 141.898 120.18C140.614 120.18 139.414 120.09 138.298 119.91V106.95C139.354 106.77 140.494 106.68 141.718 106.68C144.958 106.68 146.578 107.76 146.578 109.92C146.578 110.64 146.332 111.276 145.84 111.828C145.348 112.368 144.694 112.716 143.878 112.872V112.908C144.886 113.064 145.678 113.436 146.254 114.024C146.83 114.612 147.118 115.344 147.118 116.22ZM154.221 108.516C155.397 107.292 156.969 106.68 158.937 106.68C160.905 106.68 162.477 107.292 163.653 108.516C164.829 109.74 165.417 111.378 165.417 113.43C165.417 115.482 164.829 117.12 163.653 118.344C162.477 119.568 160.905 120.18 158.937 120.18C156.969 120.18 155.397 119.568 154.221 118.344C153.045 117.12 152.457 115.482 152.457 113.43C152.457 111.378 153.045 109.74 154.221 108.516ZM155.697 117.192C156.513 118.104 157.593 118.56 158.937 118.56C160.281 118.56 161.361 118.104 162.177 117.192C162.993 116.268 163.401 115.014 163.401 113.43C163.401 111.846 162.993 110.598 162.177 109.686C161.361 108.762 160.281 108.3 158.937 108.3C157.593 108.3 156.513 108.762 155.697 109.686C154.881 110.598 154.473 111.846 154.473 113.43C154.473 115.014 154.881 116.268 155.697 117.192ZM174.096 118.38H179.298V108.48H175.428C175.428 111.048 175.398 112.842 175.338 113.862C175.29 114.87 175.182 115.668 175.014 116.256C174.858 116.832 174.552 117.54 174.096 118.38ZM171.828 118.38C172.38 117.576 172.758 116.88 172.962 116.292C173.166 115.704 173.304 114.876 173.376 113.808C173.46 112.728 173.502 110.952 173.502 108.48V106.86H181.278V118.38H182.808V122.88H181.008V120H172.638V122.88H170.838V118.38H171.828ZM195.07 108.3C193.618 108.3 192.448 108.768 191.56 109.704C190.684 110.64 190.246 111.882 190.246 113.43C190.246 114.99 190.696 116.238 191.596 117.174C192.496 118.098 193.654 118.56 195.07 118.56C196.234 118.56 197.344 118.23 198.4 117.57L199.03 119.046C197.83 119.802 196.45 120.18 194.89 120.18C192.886 120.18 191.272 119.574 190.048 118.362C188.836 117.138 188.23 115.494 188.23 113.43C188.23 111.366 188.83 109.728 190.03 108.516C191.23 107.292 192.85 106.68 194.89 106.68C196.45 106.68 197.83 107.058 199.03 107.814L198.4 109.29C197.344 108.63 196.234 108.3 195.07 108.3ZM205.176 106.86H214.896V108.516H211.026V120H209.046V108.516H205.176V106.86ZM223.384 112.224H224.104C225.424 112.224 226.372 112.056 226.948 111.72C227.536 111.384 227.83 110.874 227.83 110.19C227.83 109.53 227.596 109.044 227.128 108.732C226.66 108.42 225.892 108.264 224.824 108.264C224.284 108.264 223.804 108.306 223.384 108.39V112.224ZM223.384 113.772V118.47C223.852 118.554 224.392 118.596 225.004 118.596C226.132 118.596 226.96 118.386 227.488 117.966C228.016 117.546 228.28 116.904 228.28 116.04C228.28 115.248 227.962 114.672 227.326 114.312C226.702 113.952 225.628 113.772 224.104 113.772H223.384ZM230.224 116.22C230.224 118.86 228.484 120.18 225.004 120.18C223.72 120.18 222.52 120.09 221.404 119.91V106.95C222.46 106.77 223.6 106.68 224.824 106.68C228.064 106.68 229.684 107.76 229.684 109.92C229.684 110.64 229.438 111.276 228.946 111.828C228.454 112.368 227.8 112.716 226.984 112.872V112.908C227.992 113.064 228.784 113.436 229.36 114.024C229.936 114.612 230.224 115.344 230.224 116.22ZM237.326 108.516C238.502 107.292 240.074 106.68 242.042 106.68C244.01 106.68 245.582 107.292 246.758 108.516C247.934 109.74 248.522 111.378 248.522 113.43C248.522 115.482 247.934 117.12 246.758 118.344C245.582 119.568 244.01 120.18 242.042 120.18C240.074 120.18 238.502 119.568 237.326 118.344C236.15 117.12 235.562 115.482 235.562 113.43C235.562 111.378 236.15 109.74 237.326 108.516ZM238.802 117.192C239.618 118.104 240.698 118.56 242.042 118.56C243.386 118.56 244.466 118.104 245.282 117.192C246.098 116.268 246.506 115.014 246.506 113.43C246.506 111.846 246.098 110.598 245.282 109.686C244.466 108.762 243.386 108.3 242.042 108.3C240.698 108.3 239.618 108.762 238.802 109.686C237.986 110.598 237.578 111.846 237.578 113.43C237.578 115.014 237.986 116.268 238.802 117.192ZM274.087 120H272.143V110.19H272.107L265.951 120H264.007V106.86H265.951V116.67H265.987L272.143 106.86H274.087V120ZM290.376 106.86H300.456V120H298.476V108.48H292.356V120H290.376V106.86ZM309.382 115.05V120H307.402V106.95C308.65 106.77 309.97 106.68 311.362 106.68C313.018 106.68 314.272 107.034 315.124 107.742C315.976 108.438 316.402 109.434 316.402 110.73C316.402 113.67 314.722 115.14 311.362 115.14C310.726 115.14 310.066 115.11 309.382 115.05ZM309.382 113.448C309.982 113.544 310.582 113.592 311.182 113.592C312.238 113.592 313.048 113.364 313.612 112.908C314.176 112.44 314.458 111.774 314.458 110.91C314.458 110.046 314.182 109.392 313.63 108.948C313.078 108.492 312.262 108.264 311.182 108.264C310.498 108.264 309.898 108.306 309.382 108.39V113.448ZM323.412 108.516C324.588 107.292 326.16 106.68 328.128 106.68C330.096 106.68 331.668 107.292 332.844 108.516C334.02 109.74 334.608 111.378 334.608 113.43C334.608 115.482 334.02 117.12 332.844 118.344C331.668 119.568 330.096 120.18 328.128 120.18C326.16 120.18 324.588 119.568 323.412 118.344C322.236 117.12 321.648 115.482 321.648 113.43C321.648 111.378 322.236 109.74 323.412 108.516ZM324.888 117.192C325.704 118.104 326.784 118.56 328.128 118.56C329.472 118.56 330.552 118.104 331.368 117.192C332.184 116.268 332.592 115.014 332.592 113.43C332.592 111.846 332.184 110.598 331.368 109.686C330.552 108.762 329.472 108.3 328.128 108.3C326.784 108.3 325.704 108.762 324.888 109.686C324.072 110.598 323.664 111.846 323.664 113.43C323.664 115.014 324.072 116.268 324.888 117.192ZM343.287 118.38H348.489V108.48H344.619C344.619 111.048 344.589 112.842 344.529 113.862C344.481 114.87 344.373 115.668 344.205 116.256C344.049 116.832 343.743 117.54 343.287 118.38ZM341.019 118.38C341.571 117.576 341.949 116.88 342.153 116.292C342.357 115.704 342.495 114.876 342.567 113.808C342.651 112.728 342.693 110.952 342.693 108.48V106.86H350.469V118.38H351.999V122.88H350.199V120H341.829V122.88H340.029V118.38H341.019ZM357.332 120L362.012 106.86H364.172L368.852 120H366.728L365.594 116.508H360.518L359.384 120H357.332ZM361.004 114.96H365.108L363.074 108.66H363.038L361.004 114.96ZM387.2 120L383.762 113.862H382.682V120H380.702V113.862H379.64L376.202 120H374.096L378.056 113.034L374.222 106.86H376.292L379.64 112.224H380.702V106.86H382.682V112.224H383.762L387.11 106.86H389.162L385.346 113.034L389.306 120H387.2ZM394.547 120L399.227 106.86H401.387L406.067 120H403.943L402.809 116.508H397.733L396.599 120H394.547ZM398.219 114.96H402.323L400.289 108.66H400.253L398.219 114.96Z" fill="#F4F4ED"/>
<path d="M58.6 49H81.35V75H76.35V53.1H63.6V75H58.6V49ZM104.032 62.1H101.532C98.5316 62.1 96.215 62.6167 94.5816 63.65C92.9816 64.6833 92.1816 66.05 92.1816 67.75C92.1816 68.9833 92.5483 69.9667 93.2816 70.7C94.0483 71.4 95.0483 71.75 96.2816 71.75C98.3816 71.75 100.198 71.0333 101.732 69.6C103.265 68.1333 104.032 66.35 104.032 64.25V62.1ZM87.2816 68C87.2816 65.1 88.4983 62.7833 90.9316 61.05C93.3983 59.2833 96.9316 58.4 101.532 58.4H104.032V58.15C104.032 56.05 103.598 54.5833 102.732 53.75C101.898 52.9167 100.415 52.5 98.2816 52.5C95.115 52.5 92.1983 53.25 89.5316 54.75L88.7816 50.75C91.5816 49.25 94.7483 48.5 98.2816 48.5C102.048 48.5 104.782 49.2667 106.482 50.8C108.182 52.3 109.032 54.7 109.032 58V68C109.032 70.3667 109.282 72.7 109.782 75H105.032C104.765 73.5333 104.615 72.2 104.582 71H104.482C103.548 72.4 102.248 73.5 100.582 74.3C98.9483 75.1 97.0983 75.5 95.0316 75.5C92.665 75.5 90.7816 74.8333 89.3816 73.5C87.9816 72.1667 87.2816 70.3333 87.2816 68ZM134.961 54.35C132.795 53.1833 130.545 52.6 128.211 52.6C125.645 52.6 123.628 53.4167 122.161 55.05C120.695 56.6833 119.961 59 119.961 62C119.961 64.9333 120.728 67.25 122.261 68.95C123.828 70.65 125.811 71.5 128.211 71.5C130.545 71.5 132.795 70.9167 134.961 69.75L136.211 73.75C133.545 74.9167 130.795 75.5 127.961 75.5C124.028 75.5 120.828 74.2833 118.361 71.85C115.928 69.4167 114.711 66.1333 114.711 62C114.711 57.7667 115.878 54.4667 118.211 52.1C120.545 49.7 123.795 48.5 127.961 48.5C130.795 48.5 133.545 49.0833 136.211 50.25L134.961 54.35ZM146.276 60.1H160.326C160.293 57.6333 159.66 55.7333 158.426 54.4C157.226 53.0667 155.56 52.4 153.426 52.4C151.293 52.4 149.576 53.0833 148.276 54.45C147.01 55.7833 146.343 57.6667 146.276 60.1ZM146.276 64C146.376 66.3333 147.176 68.1833 148.676 69.55C150.21 70.9167 152.126 71.6 154.426 71.6C156.926 71.6 159.426 70.9667 161.926 69.7L163.176 73.5C160.276 74.8333 157.193 75.5 153.926 75.5C150.193 75.5 147.126 74.2833 144.726 71.85C142.36 69.3833 141.176 66.1 141.176 62C141.176 57.8 142.276 54.5 144.476 52.1C146.71 49.7 149.693 48.5 153.426 48.5C157.126 48.5 160.01 49.6333 162.076 51.9C164.143 54.1667 165.176 57.45 165.176 61.75C165.176 62.25 165.143 63 165.076 64H146.276ZM176.256 59.7L187.006 49H193.306L180.406 61.45L193.756 75H187.456L176.256 63.25H176.156V75H170.856V49H176.156V59.7H176.256ZM214.969 62.1H212.469C209.469 62.1 207.152 62.6167 205.519 63.65C203.919 64.6833 203.119 66.05 203.119 67.75C203.119 68.9833 203.486 69.9667 204.219 70.7C204.986 71.4 205.986 71.75 207.219 71.75C209.319 71.75 211.136 71.0333 212.669 69.6C214.202 68.1333 214.969 66.35 214.969 64.25V62.1ZM198.219 68C198.219 65.1 199.436 62.7833 201.869 61.05C204.336 59.2833 207.869 58.4 212.469 58.4H214.969V58.15C214.969 56.05 214.536 54.5833 213.669 53.75C212.836 52.9167 211.352 52.5 209.219 52.5C206.052 52.5 203.136 53.25 200.469 54.75L199.719 50.75C202.519 49.25 205.686 48.5 209.219 48.5C212.986 48.5 215.719 49.2667 217.419 50.8C219.119 52.3 219.969 54.7 219.969 58V68C219.969 70.3667 220.219 72.7 220.719 75H215.969C215.702 73.5333 215.552 72.2 215.519 71H215.419C214.486 72.4 213.186 73.5 211.519 74.3C209.886 75.1 208.036 75.5 205.969 75.5C203.602 75.5 201.719 74.8333 200.319 73.5C198.919 72.1667 198.219 70.3333 198.219 68ZM242.743 75V38.5H248.043L260.093 60H260.193L272.243 38.5H277.743V75H272.243V48H272.143L262.643 65H257.643L248.143 48H248.043V75H242.743ZM288.805 60.1H302.855C302.822 57.6333 302.189 55.7333 300.955 54.4C299.755 53.0667 298.089 52.4 295.955 52.4C293.822 52.4 292.105 53.0833 290.805 54.45C289.539 55.7833 288.872 57.6667 288.805 60.1ZM288.805 64C288.905 66.3333 289.705 68.1833 291.205 69.55C292.739 70.9167 294.655 71.6 296.955 71.6C299.455 71.6 301.955 70.9667 304.455 69.7L305.705 73.5C302.805 74.8333 299.722 75.5 296.455 75.5C292.722 75.5 289.655 74.2833 287.255 71.85C284.889 69.3833 283.705 66.1 283.705 62C283.705 57.8 284.805 54.5 287.005 52.1C289.239 49.7 292.222 48.5 295.955 48.5C299.655 48.5 302.539 49.6333 304.605 51.9C306.672 54.1667 307.705 57.45 307.705 61.75C307.705 62.25 307.672 63 307.605 64H288.805ZM319.785 71H331.635V53H322.635C322.635 59.9333 322.518 64.1667 322.285 65.7C322.052 67.2 321.218 68.9667 319.785 71ZM313.885 71C314.618 70.0667 315.135 69.4167 315.435 69.05C315.768 68.65 316.118 68.0333 316.485 67.2C316.852 66.3667 317.068 65.7333 317.135 65.3C317.235 64.8667 317.335 63.95 317.435 62.55C317.568 61.1167 317.635 59.8333 317.635 58.7C317.635 57.5333 317.635 55.6333 317.635 53V49H336.635V71H340.135V81H335.135V75H316.635V81H311.635V71H313.885ZM347.213 52.15C349.513 49.7167 352.546 48.5 356.313 48.5C360.08 48.5 363.096 49.7167 365.363 52.15C367.663 54.5833 368.813 57.8667 368.813 62C368.813 66.1333 367.663 69.4167 365.363 71.85C363.096 74.2833 360.08 75.5 356.313 75.5C352.546 75.5 349.513 74.2833 347.213 71.85C344.946 69.4167 343.813 66.1333 343.813 62C343.813 57.8667 344.946 54.5833 347.213 52.15ZM350.913 69C352.246 70.6667 354.046 71.5 356.313 71.5C358.58 71.5 360.38 70.6667 361.713 69C363.046 67.3333 363.713 65 363.713 62C363.713 59 363.046 56.6667 361.713 55C360.38 53.3333 358.58 52.5 356.313 52.5C354.046 52.5 352.246 53.3333 350.913 55C349.58 56.6667 348.913 59 348.913 62C348.913 65 349.58 67.3333 350.913 69ZM379.474 71.65C380.574 71.8167 381.64 71.9 382.674 71.9C387.44 71.9 389.824 70.3167 389.824 67.15C389.824 64.2833 387.34 62.85 382.374 62.85H379.474V71.65ZM379.474 59.55H382.274C384.307 59.55 385.874 59.2167 386.974 58.55C388.107 57.85 388.674 56.8833 388.674 55.65C388.674 53.2833 386.607 52.1 382.474 52.1C381.54 52.1 380.54 52.1833 379.474 52.35V59.55ZM394.874 67.5C394.874 72.7333 390.74 75.35 382.474 75.35C379.674 75.35 376.94 75.1667 374.274 74.8V49.2C376.774 48.8333 379.357 48.65 382.024 48.65C389.724 48.65 393.574 50.7833 393.574 55.05C393.574 56.55 393.04 57.8333 391.974 58.9C390.94 59.9333 389.49 60.6167 387.624 60.95V61C389.924 61.3333 391.707 62.0833 392.974 63.25C394.24 64.3833 394.874 65.8 394.874 67.5ZM425.342 75V49H430.192V75H425.342ZM400.592 49H405.592V56.6C406.759 56.3667 408.176 56.25 409.842 56.25C413.642 56.25 416.542 57.0833 418.542 58.75C420.576 60.3833 421.592 62.6333 421.592 65.5C421.592 68.8667 420.542 71.3833 418.442 73.05C416.376 74.6833 413.176 75.5 408.842 75.5C405.942 75.5 403.192 75.25 400.592 74.75V49ZM405.592 60.6V71.1C406.826 71.3667 408.026 71.5 409.192 71.5C411.759 71.5 413.642 71.0167 414.842 70.05C416.076 69.05 416.692 67.5333 416.692 65.5C416.692 63.8333 416.059 62.55 414.792 61.65C413.526 60.7167 411.626 60.25 409.092 60.25C407.726 60.25 406.559 60.3667 405.592 60.6ZM442.609 49V67.9H442.709L455.509 49H460.909V75H455.709V56.1H455.609L442.859 75H437.409V49H442.609ZM439.409 37.75H443.659C443.725 38.95 444.292 39.9667 445.359 40.8C446.425 41.6 447.692 42 449.159 42C450.625 42 451.892 41.6 452.959 40.8C454.025 39.9667 454.592 38.95 454.659 37.75H458.909C458.909 40.0167 457.992 41.9167 456.159 43.45C454.325 44.9833 451.992 45.75 449.159 45.75C446.325 45.75 443.992 44.9833 442.159 43.45C440.325 41.9167 439.409 40.0167 439.409 37.75ZM475.671 70.5H490.121V43H479.371C479.371 50.1333 479.288 55.1167 479.121 57.95C478.988 60.75 478.688 62.9667 478.221 64.6C477.788 66.2 476.938 68.1667 475.671 70.5ZM469.371 70.5C470.905 68.2667 471.955 66.3333 472.521 64.7C473.088 63.0667 473.471 60.7667 473.671 57.8C473.905 54.8 474.021 49.8667 474.021 43V38.5H495.621V70.5H499.871V83H494.871V75H471.621V83H466.621V70.5H469.371ZM507.223 52.15C509.523 49.7167 512.556 48.5 516.323 48.5C520.089 48.5 523.106 49.7167 525.373 52.15C527.673 54.5833 528.823 57.8667 528.823 62C528.823 66.1333 527.673 69.4167 525.373 71.85C523.106 74.2833 520.089 75.5 516.323 75.5C512.556 75.5 509.523 74.2833 507.223 71.85C504.956 69.4167 503.823 66.1333 503.823 62C503.823 57.8667 504.956 54.5833 507.223 52.15ZM510.923 69C512.256 70.6667 514.056 71.5 516.323 71.5C518.589 71.5 520.389 70.6667 521.723 69C523.056 67.3333 523.723 65 523.723 62C523.723 59 523.056 56.6667 521.723 55C520.389 53.3333 518.589 52.5 516.323 52.5C514.056 52.5 512.256 53.3333 510.923 55C509.589 56.6667 508.923 59 508.923 62C508.923 65 509.589 67.3333 510.923 69ZM558.884 56L551.384 67.9H546.934L539.434 56H539.334V75H534.284V49H540.084L549.134 64.15H549.184L558.234 49H564.084V75H558.934V56H558.884Z" fill="#F4F4ED"/>
</svg>
