<svg width="18" height="29" viewBox="0 0 18 29" fill="none" xmlns="http://www.w3.org/2000/svg">
<path d="M12.6002 5.4V18.9H5.40024V5.4H12.6002ZM15.3002 0H2.70024C1.20962 0 0.000244141 1.20938 0.000244141 2.7V26.1C0.000244141 27.5906 1.20962 28.8 2.70024 28.8H15.3002C16.7909 28.8 18.0002 27.5906 18.0002 26.1V2.7C18.0002 1.20938 16.7909 0 15.3002 0ZM2.70024 27C2.20524 27 1.80024 26.595 1.80024 26.1V2.7C1.80024 2.205 2.20524 1.8 2.70024 1.8H15.3002C15.7952 1.8 16.2002 2.205 16.2002 2.7V26.1C16.2002 26.595 15.7952 27 15.3002 27H2.70024ZM13.7252 3.6H4.27524C3.90399 3.6 3.60024 3.90375 3.60024 4.275V20.025C3.60024 20.3963 3.90399 20.7 4.27524 20.7H13.7252C14.0965 20.7 14.4002 20.3963 14.4002 20.025V4.275C14.4002 3.90375 14.0965 3.6 13.7252 3.6ZM11.0252 23.4H6.97524C6.60399 23.4 6.30024 23.7038 6.30024 24.075V24.525C6.30024 24.8963 6.60399 25.2 6.97524 25.2H11.0252C11.3965 25.2 11.7002 24.8963 11.7002 24.525V24.075C11.7002 23.7038 11.3965 23.4 11.0252 23.4Z" fill="#282C3F"/>
</svg>
